<svg width="42" height="42" viewBox="0 0 42 42" fill="none" xmlns="http://www.w3.org/2000/svg">
<path fill-rule="evenodd" clip-rule="evenodd" d="M3.5 20.125V29.75C3.5 32.6495 5.85051 35 8.75 35H33.25C36.1495 35 38.5 32.6495 38.5 29.75V20.125H34.6549C32.5977 20.125 30.5866 20.7339 28.875 21.875C27.1634 23.0161 25.1523 23.625 23.0951 23.625H18.9049C16.8477 23.625 14.8366 23.0161 13.125 21.875C11.4134 20.7339 9.40227 20.125 7.34514 20.125H3.5Z" fill="#43B7D1"/>
<path d="M3.5 20.125V29.75C3.5 32.6495 5.85051 35 8.75 35H33.25C36.1495 35 38.5 32.6495 38.5 29.75V20.125M3.5 20.125L9.01765 9.77941C9.93006 8.06863 11.7111 7 13.65 7H28.35C30.2889 7 32.0699 8.06863 32.9824 9.77941L38.5 20.125M3.5 20.125H7.34514C9.40227 20.125 11.4134 20.7339 13.125 21.875C14.8366 23.0161 16.8477 23.625 18.9049 23.625H23.0951C25.1523 23.625 27.1634 23.0161 28.875 21.875C30.5866 20.7339 32.5977 20.125 34.6549 20.125H38.5" stroke="#1A0C21" stroke-width="1.5" stroke-linejoin="round"/>
</svg>
