<svg width="37" height="37" viewBox="0 0 37 37" fill="none" xmlns="http://www.w3.org/2000/svg">
<path d="M1 9.75C1 4.91751 4.91751 1 9.75 1H27.25C32.0825 1 36 4.91751 36 9.75V21.4167C36 26.2492 32.0806 30.1667 27.2481 30.1667C25.9949 30.1667 24.7825 30.615 23.831 31.4306L18.5 36L13.169 31.4306C12.2175 30.615 11.0052 30.1667 9.75192 30.1667C4.91943 30.1667 1 26.2492 1 21.4167V9.75Z" fill="#43B7D1"/>
<path d="M13.25 16C12.8358 16 12.5 16.3358 12.5 16.75C12.5 17.1642 12.8358 17.5 13.25 17.5V16ZM23.75 17.5C24.1642 17.5 24.5 17.1642 24.5 16.75C24.5 16.3358 24.1642 16 23.75 16V17.5ZM19.25 11.5C19.25 11.0858 18.9142 10.75 18.5 10.75C18.0858 10.75 17.75 11.0858 17.75 11.5H19.25ZM17.75 22C17.75 22.4142 18.0858 22.75 18.5 22.75C18.9142 22.75 19.25 22.4142 19.25 22H17.75ZM18.5 36L18.0119 36.5694C18.2928 36.8102 18.7072 36.8102 18.9881 36.5694L18.5 36ZM23.831 31.4306L23.3429 30.8611L23.831 31.4306ZM13.169 31.4306L13.6571 30.8611L13.169 31.4306ZM13.25 17.5H18.5V16H13.25V17.5ZM18.5 17.5H23.75V16H18.5V17.5ZM17.75 11.5V16.75H19.25V11.5H17.75ZM17.75 16.75V22H19.25V16.75H17.75ZM9.75 1.75H27.25V0.25H9.75V1.75ZM35.25 9.75V21.4167H36.75V9.75H35.25ZM1.75 21.4167V9.75H0.25V21.4167H1.75ZM18.9881 35.4306L13.6571 30.8611L12.6809 32L18.0119 36.5694L18.9881 35.4306ZM23.3429 30.8611L18.0119 35.4306L18.9881 36.5694L24.3191 32L23.3429 30.8611ZM27.2481 29.4167C25.8159 29.4167 24.4304 29.929 23.3429 30.8611L24.3191 32C25.1346 31.301 26.1738 30.9167 27.2481 30.9167V29.4167ZM0.25 21.4167C0.25 26.6636 4.50543 30.9167 9.75192 30.9167V29.4167C5.33343 29.4167 1.75 25.8347 1.75 21.4167H0.25ZM35.25 21.4167C35.25 25.8347 31.6666 29.4167 27.2481 29.4167V30.9167C32.4946 30.9167 36.75 26.6636 36.75 21.4167H35.25ZM27.25 1.75C31.6683 1.75 35.25 5.33172 35.25 9.75H36.75C36.75 4.50329 32.4967 0.25 27.25 0.25V1.75ZM13.6571 30.8611C12.5696 29.929 11.1841 29.4167 9.75192 29.4167V30.9167C10.8262 30.9167 11.8654 31.301 12.6809 32L13.6571 30.8611ZM9.75 0.25C4.50329 0.25 0.25 4.5033 0.25 9.75H1.75C1.75 5.33173 5.33172 1.75 9.75 1.75V0.25Z" fill="#1A0C21"/>
</svg>
