<svg width="369" height="233" viewBox="0 0 369 233" fill="none" xmlns="http://www.w3.org/2000/svg">
<g clip-path="url(#clip0_304_2028)">
<path d="M316.62 151.677L315.928 151.753L324.476 230.035L325.168 229.959L316.62 151.677Z" fill="#292A2E"/>
<path d="M338.759 185.851L334.554 227.542L335.247 227.613L339.452 185.921L338.759 185.851Z" fill="#292A2E"/>
<path d="M345.989 222.503H314.787V232.651H345.989V222.503Z" fill="#292A2E"/>
<path opacity="0.2" d="M345.989 222.503H314.787V232.651H345.989V222.503Z" fill="white"/>
<path d="M364.8 203.817C370.71 195.944 367.892 183.824 358.505 176.746C349.119 169.668 336.717 170.312 330.806 178.185C324.896 186.058 327.714 198.178 337.101 205.256C346.487 212.334 358.889 211.69 364.8 203.817Z" fill="#0CBC8B"/>
<path opacity="0.2" d="M364.8 203.817C370.71 195.944 367.892 183.824 358.505 176.746C349.119 169.668 336.717 170.312 330.806 178.185C324.896 186.058 327.714 198.178 337.101 205.256C346.487 212.334 358.889 211.69 364.8 203.817Z" fill="white"/>
<path opacity="0.5" d="M364.799 203.819C364.402 204.35 363.969 204.853 363.503 205.324C356.996 209.49 347.392 208.834 339.773 203.088C330.387 196.011 327.57 183.891 333.481 176.018C333.879 175.488 334.311 174.986 334.775 174.513C341.285 170.344 350.885 171.003 358.507 176.746C367.893 183.825 370.71 195.945 364.799 203.819Z" fill="white"/>
<path d="M321.256 173.948C330.555 166.755 333.083 154.417 326.901 146.392C320.72 138.367 308.171 137.693 298.872 144.886C289.573 152.08 287.045 164.417 293.226 172.443C299.408 180.468 311.957 181.142 321.256 173.948Z" fill="#0CBC8B"/>
<path opacity="0.2" d="M318.309 171.883C311.107 177.458 301.955 178.307 295.321 174.678C294.553 174 293.852 173.251 293.226 172.439C287.044 164.416 289.571 152.078 298.87 144.885C306.071 139.314 315.224 138.461 321.855 142.087C322.624 142.765 323.327 143.516 323.952 144.329C330.134 152.352 327.607 164.691 318.309 171.883Z" fill="white"/>
<path d="M36.5429 90.6713C55.2482 90.6713 70.4119 75.4746 70.4119 56.7286C70.4119 37.9826 55.2482 22.7859 36.5429 22.7859C17.8375 22.7859 2.67383 37.9826 2.67383 56.7286C2.67383 75.4746 17.8375 90.6713 36.5429 90.6713Z" fill="#F4F4F4"/>
<g opacity="0.05">
<path d="M36.5426 83.6368C51.3714 83.6368 63.3924 71.5896 63.3924 56.7286C63.3924 41.8676 51.3714 29.8204 36.5426 29.8204C21.7139 29.8204 9.69287 41.8676 9.69287 56.7286C9.69287 71.5896 21.7139 83.6368 36.5426 83.6368Z" fill="#292A2E"/>
</g>
<path d="M335.131 67.8854C353.837 67.8854 369 52.6888 369 33.9427C369 15.1967 353.837 0 335.131 0C316.426 0 301.262 15.1967 301.262 33.9427C301.262 52.6888 316.426 67.8854 335.131 67.8854Z" fill="#F4F4F4"/>
<g opacity="0.05">
<path d="M335.131 60.8509C349.96 60.8509 361.981 48.8037 361.981 33.9427C361.981 19.0817 349.96 7.03455 335.131 7.03455C320.302 7.03455 308.281 19.0817 308.281 33.9427C308.281 48.8037 320.302 60.8509 335.131 60.8509Z" fill="#292A2E"/>
<path d="M329.301 45C329.087 45.0001 328.874 44.9571 328.677 44.8733C328.48 44.7896 328.302 44.667 328.153 44.5128L319.456 35.5107C319.309 35.3614 319.193 35.1844 319.114 34.99C319.036 34.7956 318.997 34.5877 319 34.3783C319.003 34.169 319.048 33.9623 319.132 33.7702C319.216 33.5782 319.337 33.4046 319.489 33.2595C319.641 33.1144 319.82 33.0007 320.016 32.9249C320.212 32.8492 320.422 32.813 320.632 32.8183C320.843 32.8236 321.05 32.8704 321.242 32.956C321.434 33.0416 321.608 33.1642 321.752 33.3168L329.383 41.2157L349.334 23.4149C349.489 23.2737 349.671 23.1645 349.869 23.0937C350.067 23.0228 350.277 22.9916 350.487 23.0019C350.697 23.0123 350.903 23.0639 351.093 23.1538C351.282 23.2438 351.453 23.3703 351.593 23.526C351.733 23.6817 351.842 23.8635 351.911 24.061C351.98 24.2585 352.01 24.4677 351.997 24.6765C351.985 24.8853 351.931 25.0896 351.839 25.2776C351.747 25.4656 351.618 25.6336 351.46 25.7718L330.364 44.5944C330.072 44.8557 329.694 45.0002 329.301 45Z" fill="white"/>
</g>
<path d="M31.3012 67C31.0867 67.0001 30.8744 66.9571 30.6771 66.8733C30.4797 66.7896 30.3015 66.667 30.1531 66.5128L21.4564 57.5107C21.3088 57.3614 21.1925 57.1844 21.1142 56.99C21.0359 56.7956 20.9971 56.5877 21.0002 56.3783C21.0032 56.169 21.0479 55.9623 21.1318 55.7702C21.2157 55.5782 21.3371 55.4046 21.4889 55.2595C21.6407 55.1144 21.8199 55.0007 22.0162 54.9249C22.2125 54.8492 22.4219 54.813 22.6324 54.8183C22.8429 54.8236 23.0502 54.8704 23.2423 54.956C23.4345 55.0416 23.6077 55.1642 23.7519 55.3168L31.3831 63.2157L51.3339 45.4149C51.4891 45.2737 51.6709 45.1645 51.8688 45.0937C52.0666 45.0228 52.2767 44.9916 52.4867 45.0019C52.6968 45.0123 52.9027 45.0639 53.0926 45.1538C53.2825 45.2438 53.4526 45.3703 53.593 45.526C53.7335 45.6817 53.8415 45.8635 53.9109 46.061C53.9803 46.2585 54.0096 46.4677 53.9972 46.6765C53.9849 46.8853 53.931 47.0896 53.8388 47.2776C53.7465 47.4656 53.6177 47.6336 53.4599 47.7718L32.3641 66.5944C32.0725 66.8557 31.6938 67.0002 31.3012 67Z" fill="white"/>
<path d="M306.223 17.4691H71.3116C65.5428 17.4691 60.8662 22.1558 60.8662 27.9372V200.303C60.8662 206.084 65.5428 210.771 71.3116 210.771H306.223C311.992 210.771 316.669 206.084 316.669 200.303V27.9372C316.669 22.1558 311.992 17.4691 306.223 17.4691Z" fill="white"/>
<path d="M306.223 211.119H71.3116C68.45 211.116 65.7065 209.975 63.6831 207.947C61.6596 205.919 60.5214 203.17 60.5181 200.302V27.9371C60.5213 25.0693 61.6595 22.3198 63.683 20.2919C65.7065 18.264 68.45 17.1233 71.3116 17.1201H306.223C309.084 17.1233 311.828 18.2639 313.851 20.2918C315.875 22.3197 317.013 25.0692 317.016 27.9371V200.302C317.013 203.17 315.875 205.92 313.851 207.947C311.828 209.975 309.084 211.116 306.223 211.119ZM71.3116 17.818C68.6346 17.8209 66.068 18.888 64.1751 20.7851C62.2821 22.6821 61.2174 25.2543 61.2144 27.9371V200.302C61.2174 202.985 62.2821 205.557 64.1751 207.454C66.068 209.351 68.6346 210.418 71.3116 210.421H306.223C308.9 210.418 311.466 209.351 313.359 207.454C315.252 205.557 316.317 202.985 316.32 200.302V27.9371C316.317 25.2543 315.252 22.6821 313.359 20.7851C311.466 18.888 308.9 17.8209 306.223 17.818H71.3116Z" fill="#292A2E"/>
<path d="M106.527 111.946C106.39 111.946 106.254 111.919 106.127 111.866C106 111.814 105.885 111.736 105.788 111.639L100.914 106.754C100.724 106.557 100.618 106.292 100.621 106.018C100.623 105.743 100.733 105.481 100.927 105.287C101.12 105.092 101.382 104.982 101.656 104.98C101.93 104.978 102.194 105.083 102.391 105.274L107.265 110.159C107.411 110.305 107.511 110.492 107.551 110.695C107.591 110.898 107.571 111.108 107.492 111.3C107.413 111.491 107.279 111.654 107.107 111.769C106.935 111.884 106.733 111.946 106.527 111.946Z" fill="#0CBC8B"/>
<path d="M101.652 111.946C101.446 111.946 101.244 111.884 101.072 111.769C100.9 111.654 100.766 111.491 100.687 111.3C100.608 111.108 100.588 110.898 100.628 110.695C100.668 110.492 100.768 110.305 100.914 110.159L105.788 105.274C105.985 105.083 106.249 104.978 106.523 104.98C106.797 104.982 107.059 105.092 107.252 105.287C107.446 105.481 107.556 105.743 107.558 106.018C107.561 106.292 107.455 106.557 107.265 106.754L102.391 111.639C102.294 111.736 102.179 111.814 102.052 111.866C101.925 111.919 101.789 111.946 101.652 111.946Z" fill="#0CBC8B"/>
<path d="M246.094 158.637L244.702 161.836L253.265 165.577L254.657 162.378L246.094 158.637Z" fill="#0CBC8B"/>
<path d="M248.796 72.8827L240.743 77.6255L242.507 80.6339L250.56 75.8911L248.796 72.8827Z" fill="#0CBC8B"/>
<path d="M114.591 81.0048L113.513 84.3225L122.395 87.2228L123.473 83.9051L114.591 81.0048Z" fill="#0CBC8B"/>
<path d="M124.989 136.65L117.339 142.014L119.334 144.872L126.984 139.508L124.989 136.65Z" fill="#0CBC8B"/>
<path d="M265.31 124.354L264.991 127.828L274.089 128.669L274.409 125.194L265.31 124.354Z" fill="#0CBC8B"/>
<path d="M274.576 99.3601C274.439 99.3603 274.303 99.3333 274.177 99.2807C274.05 99.228 273.935 99.1508 273.838 99.0534L268.963 94.1683C268.864 94.0717 268.784 93.9562 268.729 93.8285C268.675 93.7008 268.646 93.5634 268.645 93.4244C268.643 93.2854 268.67 93.1476 268.722 93.0189C268.775 92.8903 268.852 92.7734 268.95 92.6751C269.049 92.5768 269.165 92.4991 269.294 92.4465C269.422 92.3939 269.559 92.3674 269.698 92.3686C269.837 92.3698 269.974 92.3987 270.101 92.4535C270.229 92.5084 270.344 92.5881 270.44 92.6881L275.315 97.5732C275.461 97.7196 275.56 97.9061 275.601 98.1091C275.641 98.3122 275.62 98.5226 275.541 98.7139C275.462 98.9051 275.328 99.0686 275.157 99.1836C274.985 99.2986 274.783 99.3601 274.576 99.3601Z" fill="#0CBC8B"/>
<path d="M269.702 99.3601C269.495 99.3601 269.294 99.2986 269.122 99.1836C268.95 99.0686 268.816 98.9051 268.737 98.7139C268.658 98.5226 268.637 98.3122 268.678 98.1091C268.718 97.9061 268.818 97.7196 268.964 97.5732L273.838 92.6881C273.934 92.5881 274.05 92.5084 274.177 92.4535C274.305 92.3987 274.442 92.3698 274.58 92.3686C274.719 92.3674 274.857 92.3939 274.985 92.4465C275.113 92.4991 275.23 92.5768 275.328 92.6751C275.426 92.7734 275.504 92.8903 275.556 93.0189C275.609 93.1476 275.635 93.2854 275.634 93.4244C275.633 93.5634 275.604 93.7008 275.549 93.8285C275.494 93.9562 275.415 94.0717 275.315 94.1683L270.441 99.0534C270.344 99.1507 270.229 99.228 270.102 99.2806C269.975 99.3332 269.839 99.3603 269.702 99.3601Z" fill="#0CBC8B"/>
<path opacity="0.4" d="M188.768 174.848C219.444 174.848 244.312 149.926 244.312 119.182C244.312 88.4393 219.444 63.5171 188.768 63.5171C158.091 63.5171 133.223 88.4393 133.223 119.182C133.223 149.926 158.091 174.848 188.768 174.848Z" fill="#0CBC8B"/>
<path d="M188.768 158.112C210.221 158.112 227.613 140.683 227.613 119.182C227.613 97.6821 210.221 80.2527 188.768 80.2527C167.314 80.2527 149.922 97.6821 149.922 119.182C149.922 140.683 167.314 158.112 188.768 158.112Z" fill="#6B51CA"/>
<path d="M180.824 135.884C180.519 135.884 180.218 135.822 179.937 135.702C179.656 135.582 179.403 135.406 179.192 135.186L166.828 122.29C166.618 122.076 166.453 121.823 166.342 121.544C166.23 121.266 166.175 120.968 166.179 120.668C166.184 120.368 166.247 120.072 166.367 119.797C166.486 119.522 166.658 119.273 166.874 119.065C167.09 118.857 167.345 118.694 167.624 118.586C167.903 118.477 168.201 118.425 168.5 118.433C168.799 118.441 169.094 118.508 169.367 118.63C169.64 118.753 169.887 118.929 170.092 119.147L180.941 130.462L209.305 104.963C209.525 104.76 209.784 104.604 210.065 104.502C210.347 104.401 210.645 104.356 210.944 104.371C211.242 104.386 211.535 104.46 211.805 104.589C212.075 104.718 212.317 104.899 212.517 105.122C212.716 105.345 212.87 105.605 212.968 105.888C213.067 106.171 213.109 106.471 213.091 106.77C213.074 107.069 212.997 107.362 212.866 107.631C212.735 107.9 212.552 108.141 212.327 108.339L182.336 135.303C181.921 135.677 181.382 135.884 180.824 135.884Z" fill="white"/>
<path d="M316.668 27.9358V38.4692H60.8677V27.9358C60.8677 25.1595 61.9682 22.4969 63.927 20.5338C65.8859 18.5707 68.5427 17.4678 71.313 17.4678H306.223C308.993 17.4678 311.65 18.5707 313.609 20.5338C315.568 22.4969 316.668 25.1595 316.668 27.9358Z" fill="#292A2E"/>
<path d="M13.0551 212.033C10.9517 212.033 8.87951 211.523 7.01488 210.548C5.15025 209.572 3.5484 208.16 2.34565 206.43C1.1429 204.701 0.374853 202.706 0.106881 200.615C-0.16109 198.524 0.0789452 196.399 0.806558 194.422C1.54504 192.413 20.4873 143.41 23.7863 134.893L46.5819 148.188C44.7279 152.977 38.0101 171.128 32.6133 185.751L41.5793 184.774L44.4013 208.697L14.4698 211.958C13.9999 212.009 13.5277 212.034 13.0551 212.033Z" fill="#43B7D1"/>
<path d="M28.7021 212.79L24.7207 232.651H102.051L97.5965 212.413L28.7021 212.79Z" fill="#262626"/>
<path d="M87.616 124.703C87.5359 124.692 85.3424 132.965 68.2224 131.678C56.3704 130.788 53.4806 122.703 53.209 122.703C54.4868 122.431 56.5619 122.148 57.1295 121.845C58.9957 120.84 60.355 119.617 61.0395 116.991C61.5747 114.938 61.8473 107.034 61.8473 103.069L80.0849 107.176C79.8307 111.649 78.0515 122.019 84.2874 123.855C85.3249 124.158 86.4426 124.437 87.616 124.703Z" fill="#E98862"/>
<path d="M79.4545 115.97C72.2649 116.539 63.0292 113.497 61.2747 103.883L59.6919 95.2095C57.9374 85.5964 61.5536 76.8799 70.5853 75.2246C79.6167 73.5692 87.7899 80.1247 89.544 89.7379L90.2449 93.5783C90.9168 97.2665 92.2814 114.956 79.4545 115.97Z" fill="#E98862"/>
<path d="M45.4221 124.034C38.9613 124.515 32.3735 125.216 27.6194 129.626C21.894 134.939 20.8564 141.47 24.5092 159.445C27.6518 174.912 26.4053 181.671 28.5076 210.211C28.5696 211.052 28.7023 212.79 28.7023 212.79L97.8156 212.676C97.8156 212.676 104.292 174.81 107.867 157.346C110.586 144.068 117.728 127.95 87.6158 124.702C87.5364 124.693 63.3857 122.698 45.4221 124.034Z" fill="#43B7D1"/>
<path d="M28.702 212.965C28.657 212.965 28.6137 212.948 28.5812 212.916C28.5488 212.885 28.5297 212.842 28.528 212.797L26.3619 156.453C26.3602 156.407 26.3769 156.362 26.4083 156.328C26.4397 156.294 26.4833 156.274 26.5294 156.272C26.5525 156.27 26.5757 156.273 26.5975 156.281C26.6194 156.288 26.6395 156.3 26.6565 156.316C26.6735 156.332 26.687 156.351 26.6962 156.372C26.7055 156.394 26.7102 156.416 26.7101 156.44L28.8761 212.784C28.8778 212.83 28.8611 212.875 28.8297 212.909C28.7983 212.943 28.7548 212.963 28.7087 212.965L28.702 212.965Z" fill="#0C0C0C"/>
<path d="M139.601 144.151L144.457 133.236C144.564 132.996 144.719 132.781 144.913 132.605C145.107 132.428 145.336 132.294 145.585 132.211C145.833 132.128 146.097 132.098 146.357 132.123C146.618 132.148 146.871 132.226 147.1 132.354C147.516 132.604 147.824 132.999 147.965 133.463C148.106 133.927 148.07 134.427 147.864 134.867L146.823 137.207L153.468 131.353C154.196 130.69 155.512 130.341 156.201 131.207C156.488 131.524 156.66 131.928 156.688 132.355C156.716 132.781 156.599 133.205 156.356 133.556C156.364 133.561 156.372 133.567 156.378 133.574C156.382 133.58 156.386 133.586 156.389 133.593L157.511 132.57C157.719 132.38 157.967 132.24 158.236 132.158C158.505 132.077 158.788 132.056 159.066 132.099C159.344 132.141 159.609 132.245 159.841 132.403C160.074 132.561 160.269 132.769 160.411 133.011C160.627 133.398 160.705 133.848 160.63 134.285C160.555 134.723 160.333 135.121 160 135.413L159.523 135.849C159.529 135.869 159.531 135.889 159.53 135.91C159.921 135.69 160.377 135.618 160.816 135.704C161.256 135.791 161.65 136.031 161.929 136.382C162.222 136.776 162.357 137.266 162.306 137.754C162.256 138.243 162.023 138.694 161.655 139.018L160.471 140.1C160.498 140.097 160.526 140.1 160.552 140.109C160.578 140.119 160.602 140.134 160.62 140.155C160.642 140.18 160.655 140.211 160.659 140.244C161.061 140.145 161.484 140.182 161.863 140.348C162.243 140.514 162.557 140.8 162.758 141.163C162.961 141.548 163.029 141.991 162.95 142.419C162.871 142.848 162.65 143.237 162.323 143.524L152.318 152.653C150.918 153.93 149.17 154.759 147.297 155.034C145.424 155.309 143.512 155.017 141.806 154.195C140.335 153.487 139.197 152.232 138.635 150.696C138.072 149.161 138.129 147.466 138.794 145.972L139.601 144.151Z" fill="#E98862"/>
<g opacity="0.2">
<path d="M149.807 139.382C149.838 139.416 149.881 139.436 149.927 139.439C149.972 139.441 150.017 139.425 150.051 139.395L156.364 133.819C156.381 133.804 156.395 133.786 156.405 133.765C156.415 133.744 156.421 133.722 156.422 133.699C156.424 133.676 156.421 133.653 156.413 133.632C156.406 133.61 156.394 133.59 156.379 133.573C156.364 133.556 156.346 133.542 156.325 133.532C156.304 133.521 156.282 133.516 156.259 133.514C156.237 133.513 156.214 133.516 156.192 133.523C156.17 133.531 156.15 133.542 156.133 133.557L149.821 139.133C149.804 139.148 149.79 139.166 149.78 139.187C149.77 139.208 149.764 139.23 149.763 139.253C149.761 139.276 149.764 139.299 149.772 139.32C149.779 139.342 149.791 139.362 149.806 139.379L149.807 139.382Z" fill="#0C0C0C"/>
</g>
<g opacity="0.2">
<path d="M152.184 142.24C152.215 142.274 152.258 142.294 152.303 142.296C152.349 142.299 152.393 142.283 152.428 142.253L159.473 136.03C159.49 136.015 159.504 135.997 159.514 135.976C159.524 135.956 159.53 135.933 159.531 135.91C159.533 135.888 159.53 135.865 159.522 135.843C159.515 135.821 159.503 135.801 159.488 135.784C159.457 135.751 159.414 135.73 159.368 135.728C159.322 135.725 159.277 135.739 159.242 135.769L152.197 141.991C152.18 142.006 152.166 142.024 152.156 142.045C152.146 142.066 152.14 142.088 152.139 142.111C152.137 142.134 152.14 142.157 152.148 142.178C152.155 142.2 152.167 142.22 152.182 142.237L152.184 142.24Z" fill="#0C0C0C"/>
</g>
<g opacity="0.2">
<path d="M154.741 145.35C154.772 145.384 154.815 145.404 154.86 145.407C154.906 145.409 154.951 145.393 154.985 145.363L160.604 140.4C160.639 140.369 160.66 140.326 160.663 140.28C160.666 140.233 160.65 140.188 160.62 140.153C160.589 140.118 160.546 140.097 160.5 140.094C160.454 140.091 160.409 140.107 160.374 140.138L154.754 145.101C154.737 145.116 154.723 145.135 154.713 145.155C154.703 145.176 154.697 145.198 154.696 145.221C154.694 145.244 154.697 145.267 154.705 145.289C154.712 145.31 154.724 145.33 154.739 145.348L154.741 145.35Z" fill="#0C0C0C"/>
</g>
<path d="M86.1201 107.144C84.8298 100.646 84.2378 96.31 84.3064 91.7358C86.1243 88.5403 85.6462 84.873 85.2329 83.2881C87.0146 84.2623 87.7597 84.3698 89.4365 84.3698C89.4365 84.3698 86.4303 72.2788 76.2127 69.0253C74.3325 68.2926 69.5367 67.3669 63.1671 68.2423C57.7495 68.987 44.3948 73.0465 42.4854 88.1142V88.1229C42.422 88.6226 41.14 102.505 38.5837 109.166C35.1468 118.12 30.3224 120.902 30.4447 131.233C30.602 144.522 54.9794 146.291 69.6843 145.295C84.3893 144.299 92.5945 139.456 92.7017 129.879C92.8201 119.149 88.7022 120.146 86.1201 107.144Z" fill="#0A0A0A"/>
<path d="M86.1241 101.697C83.3794 102.2 80.6173 99.6647 80.1156 96.9144C79.6138 94.1641 81.5616 92.2387 84.3062 91.7358L86.1241 101.697Z" fill="#E98862"/>
<path d="M115.645 210.052C112.884 210.052 110.195 209.175 107.962 207.547C105.73 205.919 104.069 203.625 103.219 200.992L85.0786 144.767L109.925 136.716L119.465 166.289L135.953 140.013L158.059 153.943L126.695 203.932C125.52 205.805 123.89 207.349 121.957 208.419C120.025 209.49 117.853 210.051 115.645 210.052Z" fill="#43B7D1"/>
<path d="M101.007 194.528C100.996 194.529 100.985 194.528 100.975 194.526C100.929 194.517 100.889 194.491 100.863 194.453C100.837 194.415 100.827 194.368 100.835 194.322L107.002 160.775C107.01 160.73 107.036 160.689 107.074 160.663C107.113 160.637 107.159 160.627 107.205 160.635C107.25 160.643 107.291 160.67 107.317 160.708C107.343 160.746 107.353 160.793 107.345 160.838L101.178 194.386C101.171 194.426 101.149 194.462 101.118 194.488C101.087 194.514 101.047 194.528 101.007 194.528Z" fill="#0C0C0C"/>
<path d="M121.685 174.208C121.646 174.208 121.609 174.195 121.578 174.172C121.547 174.148 121.526 174.115 121.516 174.078L119.462 166.148C119.456 166.126 119.455 166.102 119.458 166.08C119.461 166.057 119.468 166.035 119.48 166.015C119.492 165.996 119.507 165.978 119.525 165.965C119.544 165.951 119.564 165.941 119.586 165.935C119.609 165.929 119.632 165.928 119.654 165.931C119.677 165.934 119.699 165.942 119.718 165.954C119.738 165.965 119.755 165.981 119.769 165.999C119.783 166.017 119.793 166.038 119.799 166.06L121.853 173.99C121.864 174.035 121.858 174.082 121.834 174.122C121.811 174.162 121.773 174.191 121.728 174.203C121.714 174.206 121.699 174.208 121.685 174.208Z" fill="#0C0C0C"/>
<path d="M7.9263 233H355.98C356.072 233 356.16 232.963 356.226 232.898C356.291 232.832 356.328 232.744 356.328 232.651C356.328 232.559 356.291 232.47 356.226 232.404C356.16 232.339 356.072 232.302 355.98 232.302H7.9263C7.83396 232.302 7.7454 232.339 7.6801 232.404C7.61481 232.47 7.57812 232.559 7.57812 232.651C7.57812 232.744 7.61481 232.832 7.6801 232.898C7.7454 232.963 7.83396 233 7.9263 233Z" fill="#292A2E"/>
<path d="M274.357 115.859L340.979 115.859C344.494 115.859 347.343 113.004 347.343 109.481V65.7248C347.343 62.2024 344.494 59.3469 340.979 59.3469L274.357 59.3469C270.842 59.3469 267.993 62.2024 267.993 65.7248V109.481C267.993 113.004 270.842 115.859 274.357 115.859Z" fill="#292A2E"/>
<path d="M286.034 67.2196H277.716C276.278 67.2196 275.112 68.3878 275.112 69.8289V74.6844C275.112 76.1255 276.278 77.2937 277.716 77.2937H286.034C287.472 77.2937 288.638 76.1255 288.638 74.6844V69.8289C288.638 68.3878 287.472 67.2196 286.034 67.2196Z" fill="white"/>
<path d="M288.638 68.3368V70.7009H284.056L283.316 69.9615V67.2209H287.523C287.669 67.2209 287.814 67.2496 287.95 67.3057C288.085 67.3617 288.208 67.4439 288.311 67.5475C288.415 67.6511 288.497 67.7742 288.553 67.9096C288.609 68.045 288.638 68.1902 288.638 68.3368Z" fill="#0CBC8B"/>
<path d="M288.638 73.8121V76.1761C288.638 76.4723 288.521 76.7563 288.312 76.9657C288.103 77.1751 287.819 77.2927 287.524 77.2927H283.316V74.4779L284.056 73.8114L288.638 73.8121Z" fill="#0CBC8B"/>
<path d="M280.36 67.2196V69.9615L279.695 70.7023H275.112V68.3383C275.112 68.1917 275.141 68.0465 275.197 67.911C275.253 67.7755 275.335 67.6524 275.438 67.5487C275.542 67.4451 275.664 67.3628 275.8 67.3067C275.935 67.2506 276.08 67.2217 276.226 67.2217L280.36 67.2196Z" fill="#0CBC8B"/>
<path d="M280.36 74.4785V77.2934H276.227C276.081 77.2934 275.936 77.2645 275.801 77.2084C275.665 77.1523 275.543 77.07 275.439 76.9663C275.336 76.8626 275.254 76.7396 275.198 76.6041C275.142 76.4686 275.113 76.3234 275.113 76.1768V73.8127H279.696L280.36 74.4785Z" fill="#0CBC8B"/>
<path d="M341.176 104.638C341.176 106.21 340.553 107.717 339.444 108.829C338.335 109.94 336.831 110.564 335.263 110.564C333.695 110.564 332.191 109.94 331.082 108.829C329.973 107.717 329.35 106.21 329.35 104.638C329.351 103.755 329.551 102.883 329.935 102.088C330.319 101.293 330.877 100.595 331.568 100.046C332.432 99.3378 333.479 98.8904 334.587 98.7561C335.695 98.6219 336.818 98.8062 337.826 99.2877C338.833 99.7692 339.683 100.528 340.277 101.475C340.87 102.423 341.183 103.52 341.177 104.638H341.176Z" fill="white"/>
<path d="M329.35 109.231C328.483 109.94 327.434 110.387 326.323 110.522C325.213 110.656 324.087 110.473 323.077 109.992C322.066 109.511 321.213 108.753 320.615 107.805C320.017 106.858 319.7 105.76 319.7 104.639C319.7 103.518 320.017 102.42 320.615 101.472C321.213 100.525 322.066 99.7664 323.077 99.2856C324.087 98.8047 325.213 98.6209 326.323 98.7555C327.434 98.8902 328.483 99.3377 329.35 100.046C328.02 101.157 327.425 102.787 327.425 104.638C327.425 106.49 328.019 108.194 329.35 109.231Z" fill="#0CBC8B"/>
<path d="M287.991 85.4225H276.2C275.599 85.4225 275.112 85.9105 275.112 86.5126V86.5129C275.112 87.1149 275.599 87.603 276.2 87.603H287.991C288.592 87.603 289.079 87.1149 289.079 86.5129V86.5126C289.079 85.9105 288.592 85.4225 287.991 85.4225Z" fill="white"/>
<path d="M305.357 85.4225H293.565C292.965 85.4225 292.478 85.9105 292.478 86.5126V86.5129C292.478 87.1149 292.965 87.603 293.565 87.603H305.357C305.957 87.603 306.444 87.1149 306.444 86.5129V86.5126C306.444 85.9105 305.957 85.4225 305.357 85.4225Z" fill="white"/>
<path d="M322.722 85.4225H310.931C310.33 85.4225 309.843 85.9105 309.843 86.5126V86.5129C309.843 87.1149 310.33 87.603 310.931 87.603H322.722C323.323 87.603 323.81 87.1149 323.81 86.5129V86.5126C323.81 85.9105 323.323 85.4225 322.722 85.4225Z" fill="white"/>
<path d="M340.089 85.4225H328.297C327.696 85.4225 327.209 85.9105 327.209 86.5126V86.5129C327.209 87.1149 327.696 87.603 328.297 87.603H340.089C340.689 87.603 341.176 87.1149 341.176 86.5129V86.5126C341.176 85.9105 340.689 85.4225 340.089 85.4225Z" fill="white"/>
</g>
<defs>
<clipPath id="clip0_304_2028">
<rect width="369" height="233" fill="white"/>
</clipPath>
</defs>
</svg>
