<svg width="40" height="42" viewBox="0 0 40 42" fill="none" xmlns="http://www.w3.org/2000/svg">
<path d="M15.0624 37.8251L14.9266 37.546C9.5529 26.4979 11.3306 12.5917 19.233 3.85951C19.6668 3.38016 20.3456 3.38016 20.7794 3.85951C28.6818 12.5917 30.4595 26.4979 25.0858 37.546L24.95 37.8251C24.7471 38.2423 24.368 38.5 23.9573 38.5H16.0552C15.6444 38.5 15.2653 38.2423 15.0624 37.8251Z" fill="#43B7D1"/>
<path d="M23.2722 21C23.2722 22.933 21.8099 24.5 20.0062 24.5C18.2025 24.5 16.7403 22.933 16.7403 21C16.7403 19.067 18.2025 17.5 20.0062 17.5C21.8099 17.5 23.2722 19.067 23.2722 21Z" fill="#43B7D1"/>
<path d="M16.7403 38.5H5.30957V35C5.30957 30.7668 8.11461 27.2358 11.8414 26.425M23.2721 38.5001H34.7029V35.0001C34.7029 30.767 31.8978 27.2359 28.171 26.4252M14.9266 37.546L15.0624 37.8251C15.2653 38.2423 15.6444 38.5 16.0552 38.5H23.9573C24.368 38.5 24.7471 38.2423 24.95 37.8251L25.0858 37.546C30.4595 26.4979 28.6818 12.5917 20.7794 3.85951C20.3456 3.38016 19.6668 3.38016 19.233 3.85951C11.3306 12.5917 9.5529 26.4979 14.9266 37.546ZM23.2721 21C23.2721 22.933 21.8099 24.5 20.0062 24.5C18.2025 24.5 16.7403 22.933 16.7403 21C16.7403 19.067 18.2025 17.5 20.0062 17.5C21.8099 17.5 23.2721 19.067 23.2721 21Z" stroke="#1A0C21" stroke-width="1.5" stroke-linecap="round" stroke-linejoin="round"/>
</svg>
