<svg width="42" height="42" viewBox="0 0 42 42" fill="none" xmlns="http://www.w3.org/2000/svg">
<path d="M10.5 20.7812C10.5 14.6198 15.201 9.625 21 9.625C26.799 9.625 31.5 14.6198 31.5 20.7812C31.5 24.0845 30.1489 27.0524 28.0017 29.0951C26.4328 30.5878 25.6482 31.3343 25.4369 31.6114C24.7553 32.505 24.7253 32.5765 24.5533 33.712C24.5 34.0642 24.5 34.5949 24.5 35.6562C24.5 37.0465 24.5 37.7416 24.2187 38.2594C24.0343 38.5986 23.7692 38.8802 23.45 39.0761C22.9627 39.375 22.3085 39.375 21 39.375C19.6915 39.375 19.0373 39.375 18.55 39.0761C18.2308 38.8802 17.9657 38.5986 17.7813 38.2594C17.5 37.7416 17.5 37.0465 17.5 35.6562C17.5 34.5949 17.5 34.0642 17.4467 33.712C17.2747 32.5765 17.2447 32.505 16.5632 31.6114C16.3518 31.3343 15.5672 30.5878 13.9983 29.0951C11.8511 27.0524 10.5 24.0845 10.5 20.7812Z" fill="#43B7D1"/>
<path d="M28.0017 29.0951L27.4848 28.5517L28.0017 29.0951ZM13.9983 29.0951L14.5152 28.5517L13.9983 29.0951ZM16.5632 31.6114L15.9668 32.0662L16.5632 31.6114ZM17.4467 33.712L16.7051 33.8243L17.4467 33.712ZM25.4369 31.6114L26.0332 32.0662H26.0332L25.4369 31.6114ZM24.5533 33.712L25.2949 33.8243L24.5533 33.712ZM18.55 39.0761L18.1578 39.7154H18.1578L18.55 39.0761ZM17.7813 38.2594L18.4403 37.9013H18.4403L17.7813 38.2594ZM24.2187 38.2594L23.5597 37.9013V37.9013L24.2187 38.2594ZM23.45 39.0761L23.0578 38.4368L23.45 39.0761ZM21.75 2.625C21.75 2.21079 21.4142 1.875 21 1.875C20.5858 1.875 20.25 2.21079 20.25 2.625H21.75ZM20.25 4.375C20.25 4.78921 20.5858 5.125 21 5.125C21.4142 5.125 21.75 4.78921 21.75 4.375H20.25ZM5.25 20.875C5.66421 20.875 6 20.5392 6 20.125C6 19.7108 5.66421 19.375 5.25 19.375V20.875ZM3.5 19.375C3.08579 19.375 2.75 19.7108 2.75 20.125C2.75 20.5392 3.08579 20.875 3.5 20.875V19.375ZM9.09467 9.28033C9.38756 9.57322 9.86244 9.57322 10.1553 9.28033C10.4482 8.98744 10.4482 8.51256 10.1553 8.21967L9.09467 9.28033ZM9.10516 7.1695C8.81227 6.87661 8.33739 6.87661 8.0445 7.1695C7.75161 7.46239 7.75161 7.93727 8.0445 8.23016L9.10516 7.1695ZM31.8447 8.2196C31.5518 8.51246 31.5517 8.98733 31.8446 9.28026C32.1375 9.57319 32.6123 9.57325 32.9053 9.2804L31.8447 8.2196ZM33.9557 8.23023C34.2486 7.93737 34.2487 7.4625 33.9558 7.16957C33.663 6.87664 33.1881 6.87658 32.8952 7.16943L33.9557 8.23023ZM38.5 20.875C38.9142 20.875 39.25 20.5392 39.25 20.125C39.25 19.7108 38.9142 19.375 38.5 19.375V20.875ZM36.75 19.375C36.3358 19.375 36 19.7108 36 20.125C36 20.5392 36.3358 20.875 36.75 20.875V19.375ZM11.25 20.7812C11.25 14.9906 15.6574 10.375 21 10.375V8.875C14.7446 8.875 9.75 14.2491 9.75 20.7812H11.25ZM21 10.375C26.3426 10.375 30.75 14.9906 30.75 20.7812H32.25C32.25 14.2491 27.2554 8.875 21 8.875V10.375ZM30.75 20.7812C30.75 23.8782 29.4837 26.65 27.4848 28.5517L28.5187 29.6385C30.814 27.4548 32.25 24.2907 32.25 20.7812H30.75ZM14.5152 28.5517C12.5163 26.65 11.25 23.8782 11.25 20.7812H9.75C9.75 24.2907 11.186 27.4548 13.4813 29.6385L14.5152 28.5517ZM24.5 34.9062H17.5V36.4062H24.5V34.9062ZM13.4813 29.6385C14.2673 30.3863 14.8518 30.9423 15.2665 31.3463C15.6989 31.7675 15.902 31.9812 15.9668 32.0662L17.1595 31.1565C17.013 30.9645 16.7181 30.6663 16.3131 30.2718C15.8905 29.8602 15.2982 29.2967 14.5152 28.5517L13.4813 29.6385ZM18.25 35.6562C18.25 34.6301 18.2524 34.0233 18.1882 33.5998L16.7051 33.8243C16.7476 34.1051 16.75 34.5596 16.75 35.6562H18.25ZM15.9668 32.0662C16.3226 32.5328 16.4347 32.6954 16.5047 32.8617C16.5754 33.03 16.6153 33.231 16.7051 33.8243L18.1882 33.5998C18.1061 33.0575 18.045 32.655 17.8873 32.2802C17.7289 31.9035 17.4852 31.5836 17.1595 31.1565L15.9668 32.0662ZM27.4848 28.5517C26.7018 29.2967 26.1095 29.8602 25.6869 30.2718C25.2819 30.6663 24.987 30.9645 24.8405 31.1565L26.0332 32.0662C26.098 31.9812 26.3011 31.7675 26.7335 31.3463C27.1482 30.9423 27.7327 30.3863 28.5187 29.6385L27.4848 28.5517ZM25.25 35.6562C25.25 34.5596 25.2524 34.1051 25.2949 33.8243L23.8118 33.5998C23.7476 34.0233 23.75 34.6301 23.75 35.6562H25.25ZM24.8405 31.1565C24.5148 31.5836 24.2711 31.9035 24.1127 32.2802C23.955 32.655 23.8939 33.0575 23.8118 33.5998L25.2949 33.8243C25.3847 33.231 25.4246 33.03 25.4953 32.8617C25.5653 32.6954 25.6774 32.5328 26.0332 32.0662L24.8405 31.1565ZM21 38.625C20.3311 38.625 19.8827 38.6242 19.539 38.5911C19.2074 38.5592 19.0493 38.5025 18.9422 38.4368L18.1578 39.7154C18.538 39.9486 18.9507 40.0414 19.3952 40.0842C19.8275 40.1258 20.3604 40.125 21 40.125V38.625ZM16.75 35.6562C16.75 36.3384 16.7494 36.8972 16.7879 37.3487C16.8271 37.809 16.9113 38.2291 17.1224 38.6175L18.4403 37.9013C18.37 37.7719 18.3135 37.5855 18.2825 37.2212C18.2506 36.8483 18.25 36.3644 18.25 35.6562H16.75ZM18.9422 38.4368C18.7385 38.3118 18.5639 38.1287 18.4403 37.9013L17.1224 38.6175C17.3674 39.0685 17.723 39.4486 18.1578 39.7154L18.9422 38.4368ZM23.75 35.6562C23.75 36.3644 23.7494 36.8483 23.7175 37.2212C23.6865 37.5855 23.63 37.7719 23.5597 37.9013L24.8776 38.6175C25.0887 38.2291 25.1729 37.809 25.2121 37.3487C25.2506 36.8972 25.25 36.3384 25.25 35.6562H23.75ZM21 40.125C21.6396 40.125 22.1725 40.1258 22.6048 40.0842C23.0493 40.0414 23.462 39.9486 23.8422 39.7154L23.0578 38.4368C22.9507 38.5025 22.7926 38.5592 22.461 38.5911C22.1173 38.6242 21.6689 38.625 21 38.625V40.125ZM23.5597 37.9013C23.4361 38.1287 23.2615 38.3118 23.0578 38.4368L23.8422 39.7154C24.277 39.4486 24.6326 39.0685 24.8776 38.6175L23.5597 37.9013ZM20.25 2.625V4.375H21.75V2.625H20.25ZM5.25 19.375H3.5V20.875H5.25V19.375ZM10.1553 8.21967L9.10516 7.1695L8.0445 8.23016L9.09467 9.28033L10.1553 8.21967ZM32.9053 9.2804L33.9557 8.23023L32.8952 7.16943L31.8447 8.2196L32.9053 9.2804ZM38.5 19.375H36.75V20.875H38.5V19.375Z" fill="#1A0C21"/>
</svg>
