<svg xmlns:xlink="http://www.w3.org/1999/xlink" xmlns="http://www.w3.org/2000/svg" class="css-ze2te4 css-qd6ojx" viewBox="0 0 88.88333741421869 94.71355946562157" width="110"  height="110" ><defs><linearGradient id="SvgjsLinearGradient1536"><stop id="SvgjsStop1537" stop-color="#147d6c" offset="0"></stop><stop id="SvgjsStop1538" stop-color="#1effff" offset="1"></stop></linearGradient><linearGradient id="SvgjsLinearGradient1536"><stop id="SvgjsStop1537" stop-color="#147d6c" offset="0"></stop><stop id="SvgjsStop1538" stop-color="#1effff" offset="1"></stop></linearGradient></defs><g transform="translate(-10.450391999294705, -9.020339196550836) scale(1.1000412630836531)" class="css-10s1vit" fill="url(&quot;#SvgjsLinearGradient1536&quot;)"><path xmlns="http://www.w3.org/2000/svg" d="M79.3,30.2c6.1,0,11-4.9,11-11c0-6.1-4.9-11-11-11c-6.1,0-11,4.9-11,11c0,2.9,1.2,5.6,3,7.6L57.9,41c-2-1.9-4.7-3.1-7.6-3.1  c-2.9,0-5.6,1.1-7.5,3L29.4,28.6c0.9-1.2,1.4-2.7,1.4-4.3c0-4-3.3-7.3-7.3-7.3c-4,0-7.3,3.3-7.3,7.3c0,4,3.3,7.3,7.3,7.3  c1.9,0,3.6-0.7,4.9-1.9L41.8,42c-1.5,1.9-2.4,4.3-2.4,6.9c0,2.9,1.1,5.5,2.9,7.4L27.5,71.9c-1.9-1.6-4.3-2.5-7-2.5  c-6.1,0-11,4.9-11,11c0,6.1,4.9,11,11,11c6.1,0,11-4.9,11-11c0-2.9-1.1-5.5-2.9-7.4l14.7-15.6c1.9,1.6,4.3,2.5,7,2.5  c0.2,0,0.3,0,0.5,0l1.9,17c-4,0.8-7.1,4.3-7.1,8.6c0,4.9,3.9,8.8,8.8,8.8s8.8-3.9,8.8-8.8c0-4.9-3.9-8.8-8.8-8.8c-0.1,0-0.2,0-0.3,0  l-1.9-17c2.6-0.5,4.9-1.8,6.5-3.8l13.6,9.8c-0.6,1.1-1,2.3-1,3.7c0,4,3.3,7.3,7.3,7.3s7.3-3.3,7.3-7.3c0-4-3.3-7.3-7.3-7.3  c-2.2,0-4.1,1-5.4,2.5l-13.6-9.8c1.1-1.7,1.7-3.7,1.7-5.8c0-2.6-0.9-4.9-2.4-6.8l13.5-14.3C74.3,29.3,76.7,30.2,79.3,30.2z" fill="url(&quot;#SvgjsLinearGradient1536&quot;)"></path></g></svg>