<svg width="615" height="373" viewBox="0 0 615 373" fill="none" xmlns="http://www.w3.org/2000/svg">
<path d="M572.572 372.472C578.302 372.472 583.972 371.311 589.241 369.059C594.51 366.808 599.268 363.513 603.229 359.372C607.19 355.231 610.271 350.331 612.287 344.967C614.303 339.604 615.211 333.887 614.958 328.162C613.564 296.589 597.418 252.005 533.785 207.451C456.187 153.12 491.183 -3.31272 326.31 7.48131C161.438 18.2753 177.155 133.882 76.0581 186.868C11.7081 220.597 0.00418146 286.591 0 330.107C0.0105311 341.351 4.48583 352.13 12.4418 360.075C20.3978 368.019 31.183 372.478 42.4258 372.472H572.572Z" fill="#F3F5FD"/>
<path d="M508.262 13.6196H385.377C379.411 13.6196 374.575 18.4563 374.575 24.4226V176.77C374.575 182.736 379.411 187.573 385.377 187.573H508.262C514.228 187.573 519.064 182.736 519.064 176.77V24.4226C519.064 18.4563 514.228 13.6196 508.262 13.6196Z" fill="#C1D8ED"/>
<path d="M507.244 22.9207H386.394C384.773 22.9207 383.458 24.2353 383.458 25.857V175.335C383.458 176.956 384.773 178.271 386.394 178.271H507.244C508.866 178.271 510.18 176.956 510.18 175.335V25.857C510.18 24.2353 508.866 22.9207 507.244 22.9207Z" fill="#DEE8F5"/>
<path d="M479.523 4.59514H414.117C410.731 4.59514 407.985 7.34052 407.985 10.7271V26.2626C407.985 29.6492 410.731 32.3946 414.117 32.3946H479.523C482.909 32.3946 485.654 29.6492 485.654 26.2626V10.7271C485.654 7.34052 482.909 4.59514 479.523 4.59514Z" fill="#C1D8ED"/>
<path d="M502.817 61.0793H390.597V64.7907H502.817V61.0793Z" fill="white"/>
<path d="M452.695 68.3828H390.597V72.0942H452.695V68.3828Z" fill="white"/>
<path d="M502.817 61.0793H390.597V64.7907H502.817V61.0793Z" fill="white"/>
<path d="M503.219 43H391V46.7114H503.219V43Z" fill="white"/>
<path d="M453.098 52H391V55.7114H453.098V52Z" fill="white"/>
<path d="M406.878 120.534H391.946C391.601 120.534 391.271 120.397 391.027 120.153C390.784 119.91 390.647 119.579 390.647 119.235V104.301C390.647 103.957 390.784 103.626 391.027 103.383C391.271 103.139 391.601 103.002 391.946 103.002H406.878C407.049 103.002 407.218 103.036 407.375 103.101C407.533 103.166 407.676 103.262 407.797 103.382C407.918 103.503 408.013 103.646 408.079 103.804C408.144 103.962 408.178 104.131 408.178 104.301V119.235C408.178 119.405 408.144 119.574 408.079 119.732C408.013 119.89 407.918 120.033 407.797 120.154C407.676 120.274 407.533 120.37 407.375 120.435C407.218 120.5 407.049 120.534 406.878 120.534ZM393.246 117.936H405.581V105.599H393.246V117.936Z" fill="#C1D8ED"/>
<path d="M482.494 105.49H413.055V109.478H482.494V105.49Z" fill="white"/>
<path d="M471.238 114.059H413.055V118.048H471.238V114.059Z" fill="white"/>
<path d="M406.878 170.524H391.946C391.601 170.524 391.271 170.387 391.027 170.144C390.784 169.9 390.647 169.57 390.647 169.225V154.292C390.647 153.947 390.784 153.617 391.028 153.373C391.271 153.13 391.602 152.993 391.946 152.993H406.878C407.223 152.993 407.553 153.129 407.797 153.373C408.041 153.617 408.178 153.947 408.178 154.292V169.225C408.178 169.396 408.144 169.565 408.079 169.722C408.013 169.88 407.918 170.023 407.797 170.144C407.676 170.265 407.533 170.36 407.375 170.426C407.218 170.491 407.049 170.524 406.878 170.524ZM393.246 167.926H405.581V155.59H393.246V167.926Z" fill="#C1D8ED"/>
<path d="M482.494 155.479H413.055V159.468H482.494V155.479Z" fill="white"/>
<path d="M471.238 164.049H413.055V168.037H471.238V164.049Z" fill="white"/>
<path d="M406.878 95.539H391.946C391.601 95.539 391.271 95.4022 391.027 95.1585C390.784 94.9149 390.647 94.5844 390.647 94.2399V79.3065C390.647 78.9621 390.784 78.6318 391.028 78.3883C391.271 78.1448 391.602 78.0081 391.946 78.0081H406.878C407.049 78.008 407.218 78.0415 407.375 78.1067C407.533 78.1719 407.676 78.2675 407.797 78.3881C407.917 78.5086 408.013 78.6518 408.079 78.8094C408.144 78.967 408.178 79.1359 408.178 79.3065V94.2399C408.178 94.4105 408.144 94.5795 408.079 94.7372C408.013 94.8949 407.918 95.0381 407.797 95.1588C407.676 95.2794 407.533 95.3751 407.375 95.4403C407.218 95.5056 407.049 95.5391 406.878 95.539ZM393.246 92.9407H405.581V80.6043H393.246V92.9407Z" fill="#C1D8ED"/>
<path d="M482.494 80.4942H413.055V84.4829H482.494V80.4942Z" fill="white"/>
<path d="M471.238 89.0635H413.055V93.0523H471.238V89.0635Z" fill="white"/>
<path d="M406.878 145.528H391.946C391.602 145.528 391.271 145.391 391.028 145.147C390.784 144.904 390.647 144.573 390.647 144.229V129.297C390.647 128.952 390.784 128.622 391.027 128.378C391.271 128.135 391.601 127.998 391.946 127.998H406.878C407.049 127.998 407.218 128.031 407.375 128.096C407.533 128.162 407.676 128.257 407.797 128.378C407.918 128.499 408.013 128.642 408.079 128.8C408.144 128.957 408.178 129.126 408.178 129.297V144.23C408.177 144.575 408.04 144.905 407.796 145.148C407.553 145.391 407.222 145.528 406.878 145.528ZM393.246 142.93H405.581V130.593H393.246V142.93Z" fill="#C1D8ED"/>
<path d="M482.494 130.485H413.055V134.473H482.494V130.485Z" fill="white"/>
<path d="M471.238 139.054H413.055V143.043H471.238V139.054Z" fill="white"/>
<path d="M398.573 116.154C398.539 116.154 398.507 116.154 398.474 116.154C398.284 116.141 398.099 116.088 397.93 116.001C397.761 115.913 397.612 115.791 397.492 115.644L394.455 111.917C394.221 111.631 394.111 111.263 394.148 110.895C394.186 110.527 394.368 110.19 394.654 109.956C394.941 109.722 395.308 109.612 395.676 109.649C396.044 109.687 396.382 109.869 396.615 110.155L398.717 112.734L409.081 103.174C409.215 103.05 409.373 102.954 409.545 102.891C409.717 102.828 409.899 102.799 410.082 102.806C410.265 102.814 410.445 102.857 410.611 102.934C410.777 103.011 410.927 103.12 411.051 103.254C411.175 103.389 411.271 103.546 411.334 103.718C411.397 103.89 411.426 104.073 411.419 104.256C411.411 104.439 411.368 104.618 411.291 104.784C411.214 104.951 411.105 105.1 410.971 105.224L399.518 115.785C399.26 116.022 398.923 116.154 398.573 116.154Z" fill="white"/>
<path d="M398.432 91.349C398.398 91.349 398.366 91.349 398.333 91.349C398.143 91.3355 397.958 91.2833 397.789 91.1955C397.62 91.1078 397.471 90.9864 397.351 90.8388L394.314 87.1121C394.08 86.8256 393.97 86.458 394.007 86.0902C394.045 85.7223 394.226 85.3844 394.513 85.1508C394.799 84.9171 395.167 84.8069 395.535 84.8443C395.903 84.8816 396.24 85.0636 396.474 85.3501L398.576 87.9289L408.94 78.3692C409.074 78.2451 409.232 78.1487 409.404 78.0856C409.576 78.0224 409.758 77.9937 409.941 78.0011C410.124 78.0086 410.304 78.0519 410.47 78.1288C410.636 78.2056 410.785 78.3145 410.91 78.449C411.034 78.5836 411.13 78.7414 411.193 78.9132C411.256 79.085 411.285 79.2676 411.278 79.4506C411.27 79.6335 411.227 79.8132 411.15 79.9794C411.073 80.1455 410.964 80.2949 410.83 80.419L399.377 90.9796C399.119 91.2171 398.782 91.349 398.432 91.349Z" fill="white"/>
<path d="M398.432 141.349C398.398 141.349 398.366 141.349 398.333 141.349C398.143 141.335 397.958 141.283 397.789 141.196C397.62 141.108 397.471 140.986 397.351 140.839L394.314 137.112C394.08 136.826 393.97 136.458 394.007 136.09C394.045 135.722 394.226 135.384 394.513 135.151C394.799 134.917 395.167 134.807 395.535 134.844C395.903 134.882 396.24 135.064 396.474 135.35L398.576 137.929L408.94 128.369C409.074 128.245 409.232 128.149 409.404 128.086C409.576 128.022 409.758 127.994 409.941 128.001C410.124 128.009 410.304 128.052 410.47 128.129C410.636 128.206 410.785 128.314 410.91 128.449C411.034 128.584 411.13 128.741 411.193 128.913C411.256 129.085 411.285 129.268 411.278 129.451C411.27 129.634 411.227 129.813 411.15 129.979C411.073 130.146 410.964 130.295 410.83 130.419L399.377 140.98C399.119 141.217 398.782 141.349 398.432 141.349Z" fill="white"/>
<path d="M398.432 166.349C398.398 166.349 398.366 166.349 398.333 166.349C398.143 166.335 397.958 166.283 397.789 166.196C397.62 166.108 397.471 165.986 397.351 165.839L394.314 162.112C394.08 161.826 393.97 161.458 394.007 161.09C394.045 160.722 394.226 160.384 394.513 160.151C394.799 159.917 395.167 159.807 395.535 159.844C395.903 159.882 396.24 160.064 396.474 160.35L398.576 162.929L408.94 153.369C409.074 153.245 409.232 153.149 409.404 153.086C409.576 153.022 409.758 152.994 409.941 153.001C410.124 153.009 410.304 153.052 410.47 153.129C410.636 153.206 410.785 153.314 410.91 153.449C411.034 153.584 411.13 153.741 411.193 153.913C411.256 154.085 411.285 154.268 411.278 154.451C411.27 154.634 411.227 154.813 411.15 154.979C411.073 155.146 410.964 155.295 410.83 155.419L399.377 165.98C399.119 166.217 398.782 166.349 398.432 166.349Z" fill="white"/>
<path d="M286.672 203.116C288.698 203.498 300.959 205.638 301.765 204.008C302.253 203.032 297.431 200.86 297.431 200.86" fill="#E98862"/>
<path d="M289.984 194.046C289.984 194.046 307.564 191.544 314.216 199.433C314.385 199.634 314.49 199.881 314.516 200.143C314.542 200.404 314.489 200.668 314.364 200.899C314.238 201.13 314.045 201.317 313.811 201.437C313.577 201.556 313.313 201.603 313.052 201.57C307.695 200.882 299.703 200.775 297.224 203.632C295.779 205.296 288.413 203.444 288.413 203.444" fill="#E98862"/>
<path d="M183.332 264.088L154.966 371.936L159.01 373L187.376 265.152L183.332 264.088Z" fill="#C1D8ED"/>
<path d="M233.599 264.296L229.468 264.944L246.376 372.793L250.507 372.145L233.599 264.296Z" fill="#C1D8ED"/>
<path d="M179.536 161.167C179.536 161.167 144.994 158.985 144.994 189.168C144.994 219.35 150.081 261.532 175.536 266.259C200.992 270.985 238.594 269.561 247.324 268.081C258.05 266.263 262.726 241.379 248.439 239.714C207.897 234.987 227.532 164.44 179.536 161.167Z" fill="#C1D8ED"/>
<path d="M245.57 351.597L244.256 368.644L258.848 369.769L260.162 352.722L245.57 351.597Z" fill="#E98862"/>
<path d="M277.389 372.341C277.765 372.34 278.136 372.264 278.483 372.118C278.83 371.973 279.144 371.761 279.409 371.494C279.673 371.226 279.883 370.91 280.025 370.562C280.167 370.214 280.239 369.841 280.238 369.466C280.238 369.396 280.238 369.326 280.229 369.256C280.187 368.713 279.99 368.192 279.662 367.756C279.334 367.321 278.888 366.988 278.377 366.797L261.342 361.09C261.012 360.981 260.662 360.944 260.317 360.983C259.971 361.021 259.638 361.134 259.34 361.313C256.998 362.938 254.197 363.768 251.348 363.683C249.129 363.525 246.999 362.747 245.201 361.436C245.043 361.307 244.852 361.225 244.649 361.2C244.446 361.175 244.24 361.208 244.055 361.296C243.871 361.384 243.715 361.522 243.606 361.695C243.497 361.868 243.439 362.068 243.439 362.273V370.603C243.439 371.098 243.636 371.573 243.986 371.923C244.336 372.273 244.811 372.47 245.306 372.47H245.313L277.389 372.341Z" fill="#C1D8ED"/>
<path d="M318.135 350.945L303.703 353.373L306.57 370.42L321.002 367.993L318.135 350.945Z" fill="#E98862"/>
<path d="M325.597 354.677L293.46 231.047C292.742 228.284 291.127 225.838 288.87 224.092C286.612 222.346 283.839 221.398 280.985 221.397H210.564V221.442H171.112V233.533C171.112 237.02 171.799 240.471 173.133 243.692C174.466 246.913 176.421 249.839 178.886 252.304C181.351 254.769 184.277 256.725 187.497 258.059C190.718 259.393 194.169 260.08 197.655 260.08H216.897V260.156H250.488L241.238 358.506L266.911 360.921L275.855 265.815L300.637 361.165L325.597 354.677Z" fill="#262626"/>
<path d="M246.507 202.736L292.299 205.706L294.906 191.963L249.959 187.796L230.424 152.857C229.766 151.68 229.206 150.451 228.647 149.223C226.641 144.81 222.654 141.922 215.293 141.605C214.854 141.591 214.15 141.57 213.244 141.556C213.063 145.389 189.319 145.375 188.817 141.465C182.113 141.472 176.608 143.535 173.43 146.714C162.453 157.691 175.925 176.398 175.925 191.034C175.925 205.671 169.304 212.236 169.792 219.749C170.558 231.556 227.935 228.768 230.855 222.056C232.813 217.56 230.916 214.181 229.422 206.14H254.737V199.084M228.029 188.246C228.058 185.784 228.248 183.207 228.509 180.585L234.294 190.942H228.029C228.02 190.07 228.017 189.18 228.029 188.246Z" fill="#43B7D1"/>
<path d="M213.245 141.555C213.064 145.389 210.973 151.027 204.548 151.445C195.969 152.017 189.32 145.375 188.818 141.465H188.846C197.279 141.465 208.318 141.479 213.245 141.555Z" fill="#E98862"/>
<path d="M337.535 372.341C337.911 372.34 338.282 372.264 338.629 372.118C338.976 371.973 339.29 371.76 339.555 371.493C339.819 371.226 340.029 370.909 340.171 370.561C340.313 370.213 340.385 369.84 340.384 369.464C340.384 369.395 340.384 369.325 340.375 369.255C340.333 368.711 340.136 368.191 339.807 367.755C339.479 367.319 339.033 366.986 338.522 366.796L321.488 361.089C321.158 360.98 320.808 360.943 320.463 360.982C320.117 361.02 319.784 361.133 319.486 361.312C317.144 362.937 314.343 363.768 311.494 363.682C309.275 363.525 307.145 362.746 305.347 361.436C305.189 361.306 304.997 361.225 304.795 361.2C304.592 361.175 304.386 361.208 304.202 361.296C304.017 361.384 303.861 361.522 303.752 361.695C303.643 361.868 303.586 362.068 303.586 362.272V370.602C303.586 371.097 303.783 371.572 304.133 371.922C304.483 372.272 304.957 372.469 305.452 372.469H305.46L337.535 372.341Z" fill="#C1D8ED"/>
<path d="M137.731 212.895H131.186V372.472H137.731V212.895Z" fill="#DEE8F5"/>
<path d="M453.413 212.895H446.868V372.472H453.413V212.895Z" fill="#C1D8ED"/>
<path d="M453.413 210.895H394.388V361.561H453.413V210.895Z" fill="#C1D8ED"/>
<path d="M389.149 350.649H382.604V372.472H389.149V350.649Z" fill="#C1D8ED"/>
<path d="M462.461 206.304H122.137V215.304H462.461V206.304Z" fill="#DEE8F5"/>
<path d="M397.66 212.895H391.115V372.472H397.66V212.895Z" fill="#DEE8F5"/>
<path d="M333.396 212.895H326.851V372.472H333.396V212.895Z" fill="#DEE8F5"/>
<path d="M394.387 215.316H330.123V361.56H394.387V215.316Z" fill="#DEE8F5"/>
<path d="M326.884 166.019L318.422 201.545C318.29 202.098 318.286 202.673 318.409 203.228C318.531 203.783 318.778 204.302 319.13 204.748C319.482 205.194 319.93 205.555 320.441 205.802C320.953 206.05 321.513 206.179 322.081 206.179H371.969C372.793 206.179 373.595 205.909 374.25 205.409C374.905 204.909 375.379 204.208 375.597 203.413L385.348 167.888C385.501 167.329 385.523 166.743 385.412 166.175C385.302 165.606 385.062 165.071 384.711 164.61C384.36 164.15 383.907 163.777 383.388 163.52C382.87 163.263 382.298 163.129 381.719 163.129H330.545C329.698 163.129 328.877 163.414 328.212 163.938C327.548 164.463 327.08 165.196 326.884 166.019Z" fill="#9EBCEA"/>
<path d="M300.662 206.182H360.958C361.544 206.182 362.106 205.949 362.521 205.535C362.935 205.12 363.168 204.558 363.168 203.971C363.168 203.385 362.935 202.823 362.521 202.408C362.106 201.993 361.544 201.761 360.958 201.761H300.662C300.075 201.761 299.513 201.993 299.099 202.408C298.684 202.823 298.451 203.385 298.451 203.971C298.451 204.558 298.684 205.12 299.099 205.535C299.513 205.949 300.075 206.182 300.662 206.182Z" fill="#9EBCEA"/>
<path d="M353.927 190.207C357.186 190.207 359.827 187.565 359.827 184.306C359.827 181.047 357.186 178.406 353.927 178.406C350.669 178.406 348.027 181.047 348.027 184.306C348.027 187.565 350.669 190.207 353.927 190.207Z" fill="white"/>
<path d="M249.959 205.706C252.022 205.706 264.464 205.537 264.956 203.786C265.252 202.736 260.114 201.496 260.114 201.496" fill="#E98862"/>
<path d="M261.465 206.434C261.465 201.667 266.113 197.804 271.849 197.804C277.584 197.804 282.233 201.667 282.233 206.434" fill="#DEE8F5"/>
<path d="M251.531 196.18C251.531 196.18 268.344 190.465 276.341 196.984C276.545 197.15 276.693 197.374 276.768 197.626C276.842 197.878 276.839 198.147 276.758 198.397C276.677 198.647 276.523 198.867 276.315 199.028C276.107 199.189 275.856 199.284 275.593 199.3C270.201 199.617 262.328 200.992 260.421 204.259C259.31 206.162 251.728 205.706 251.728 205.706" fill="#E98862"/>
<path d="M254.737 193.862H234.062V206.14H254.737V193.862Z" fill="#43B7D1"/>
<path d="M499.941 291.619L483.664 371.021C483.56 371.435 483.32 371.803 482.983 372.066C482.646 372.329 482.231 372.472 481.804 372.472C481.512 372.472 481.224 372.405 480.962 372.277C480.7 372.149 480.471 371.963 480.291 371.733C480.112 371.503 479.987 371.235 479.927 370.95C479.867 370.664 479.873 370.369 479.944 370.086L496.453 289.768L499.941 291.619Z" fill="#C1D8ED"/>
<path d="M538.187 291.492L554.462 370.894C554.566 371.308 554.806 371.676 555.143 371.939C555.48 372.202 555.895 372.345 556.322 372.345C556.614 372.345 556.902 372.278 557.164 372.15C557.426 372.022 557.655 371.836 557.835 371.606C558.014 371.376 558.139 371.108 558.199 370.823C558.259 370.537 558.253 370.242 558.182 369.959L541.675 289.641L538.187 291.492Z" fill="#C1D8ED"/>
<path d="M555.295 283.854H482.833C481.001 283.854 479.516 285.339 479.516 287.171V294.475C479.516 296.307 481.001 297.792 482.833 297.792H555.295C557.127 297.792 558.612 296.307 558.612 294.475V287.171C558.612 285.339 557.127 283.854 555.295 283.854Z" fill="#DEE8F5"/>
<path d="M535.69 244.824C533.386 244.07 531.021 244.916 528.76 246.637C531.739 239.109 532.97 232.314 527.876 232.009C524.311 231.795 521.581 234.529 519.507 238.417C518.777 231.581 516.895 226.483 512.677 228.172C508.048 230.027 507.344 236.388 508.047 243.042C506.007 239.643 503.811 237.748 501.818 239.741C495.868 245.692 510.472 262.463 510.472 262.463H514.096L516.166 264.711C515.747 265.596 515.518 266.123 515.518 266.123L518.153 271.471C518.153 271.471 545.251 247.954 535.69 244.824Z" fill="#BD97E5"/>
<path d="M529.188 283.456H508.661L505.226 259.492H532.623L529.188 283.456Z" fill="#C1D8ED"/>
<path d="M74.1309 341.702C69.6833 340.425 66.3353 336.445 65.0049 332.014C63.6745 327.582 64.1435 322.772 65.4433 318.33C66.5033 314.706 68.1103 311.202 68.5062 307.447C69.8247 294.941 57.6964 282.164 63.4034 270.96C65.2495 267.335 68.8205 264.505 69.4582 260.488C69.9857 257.167 68.3494 253.937 67.5361 250.676C66.4168 246.186 66.9841 241.09 69.8972 237.494C72.8103 233.899 78.3152 232.327 82.3294 234.63C87.5799 237.642 88.035 245.078 86.6858 250.979C85.3366 256.879 82.8354 262.951 84.4842 268.775C86.0558 274.326 91.1697 278.506 92.0861 284.203C92.8486 288.938 90.5376 293.555 89.5215 298.243C87.9256 305.61 89.5501 313.247 89.6198 320.785C89.6895 328.323 87.5618 336.778 74.1309 341.702Z" fill="#7C27C8" fill-opacity="0.46"/>
<path d="M67.2672 342.417C64.6206 341.576 62.2456 340.046 60.3859 337.983C58.5263 335.92 57.249 333.4 56.6853 330.68C55.8148 326.195 56.8839 321.157 54.4294 317.303C51.103 312.082 47.6916 311.491 43.5513 306.889C37.1836 299.812 36.9599 296.678 37.3801 283.571C37.5578 278.029 29.9051 271.774 32.6 266.448C34.9744 261.756 42.1923 261.732 46.2853 265.034C50.3782 268.335 52.1762 273.628 53.9603 278.575C55.7444 283.522 57.992 288.756 62.5128 291.442C65.2245 293.052 68.7739 293.796 70.2715 296.571C71.4751 298.802 70.8688 301.523 70.3851 304.011C69.169 310.263 69.4743 317.891 74.7206 321.505C77.0901 323.134 80.1879 323.695 82.1343 325.81C84.0585 327.901 84.3686 330.998 84.2383 333.837C83.9823 339.294 82.4789 344.62 79.8436 349.406" fill="#DEE8F5"/>
<path d="M73.5938 346.772C71.2798 344.015 69.8851 340.604 69.6047 337.015C69.3243 333.426 70.1723 329.84 72.0299 326.756C75.242 321.669 81.2291 318.161 82.4836 312.275C83.6028 307.033 80.4981 301.612 81.4278 296.336C82.4383 290.595 87.7411 286.828 91.9511 282.799C93.0475 281.819 93.9905 280.681 94.7485 279.421C96.6009 276.087 96.0845 271.995 96.7131 268.232C97.9181 261.026 103.854 254.635 111.062 253.444C117.383 252.398 121.912 256.03 121.912 262.719C121.912 270.642 115.976 274.038 112.949 277.625C108.6 282.818 106.292 289.418 106.457 296.19C106.67 303.754 109.89 311.808 106.45 318.548C103.925 323.496 98.5313 326.131 94.2941 329.719C91.092 332.463 88.4854 335.833 86.6348 339.622C84.7841 343.412 83.7285 347.54 83.5331 351.752" fill="white"/>
<path d="M93.9824 334.349H55.8628V372.472H93.9824V334.349Z" fill="#44B4D1"/>
<g opacity="0.42">
<path d="M93.9824 341.782H55.8628V349.223H93.9824V341.782Z" fill="white"/>
</g>
<path d="M190.866 145.436C190.866 145.436 196.255 142.578 195.052 127.903L206.186 125.838C206.186 125.838 204.931 138.996 210.568 143.174L190.866 145.436Z" fill="#E98862"/>
<g opacity="0.15">
<path d="M208.286 140.423L199.038 133.346L206.302 133.27C206.512 135.757 207.185 138.183 208.286 140.423Z" fill="black"/>
</g>
<path d="M188.735 122.212C189.505 126.664 191.935 130.881 195.863 132.318C200.524 134.025 203.977 134.141 209.353 134.141C216.688 134.141 216.445 126.49 216.652 118.781C216.861 111.04 216.243 102.737 213.344 100.04C207.56 94.6567 190.574 98.0663 188.507 107.071C187.439 111.73 188.001 117.974 188.735 122.212Z" fill="#E98862"/>
<path d="M220.583 104.517C220.583 104.517 223.587 103.846 222.764 100.85C222.219 98.8629 219.674 99.3041 219.674 99.3041C219.674 99.3041 222.084 98.8629 222.084 96.7587C222.084 95.4345 221.065 93.1874 217.992 94.4713C214.386 95.9774 210.275 95.7837 207.148 95.2582C205.379 94.8708 203.583 94.6173 201.776 94.4998H201.767C199.69 94.4635 197.619 94.7405 195.625 95.3216C190.036 96.9943 181.576 102.006 183.374 113.368C185.382 126.049 191.332 130.899 193.949 132.454C194.104 132.548 194.278 132.604 194.458 132.621C194.639 132.637 194.82 132.612 194.989 132.548C195.158 132.483 195.31 132.381 195.434 132.25C195.558 132.118 195.65 131.96 195.704 131.787C196.446 129.411 197.725 123.431 197.368 111.1C214.549 110.257 219.491 110.001 219.491 110.001C219.491 110.001 223.533 110.153 223.533 107.198C223.533 104.243 220.583 104.517 220.583 104.517Z" fill="#0F1011"/>
<path d="M206.17 118.782C206.728 118.782 207.18 118.33 207.18 117.772C207.18 117.215 206.728 116.763 206.17 116.763C205.613 116.763 205.161 117.215 205.161 117.772C205.161 118.33 205.613 118.782 206.17 118.782Z" fill="#0F1011"/>
<path d="M214.137 118.129C214.694 118.129 215.147 117.677 215.147 117.119C215.147 116.562 214.694 116.109 214.137 116.109C213.579 116.109 213.127 116.562 213.127 117.119C213.127 117.677 213.579 118.129 214.137 118.129Z" fill="#0F1011"/>
<path d="M215.887 114.967H215.881L213.206 114.934C213.08 114.932 212.96 114.88 212.872 114.79C212.784 114.7 212.736 114.579 212.737 114.453C212.74 114.328 212.792 114.209 212.882 114.121C212.971 114.034 213.092 113.985 213.217 113.984L215.892 114.018C216.018 114.019 216.139 114.069 216.227 114.159C216.316 114.248 216.365 114.369 216.364 114.495C216.364 114.621 216.313 114.742 216.223 114.83C216.134 114.919 216.013 114.968 215.887 114.967Z" fill="#0F1011"/>
<path d="M203.99 115.942C203.874 115.942 203.762 115.899 203.676 115.822C203.589 115.745 203.534 115.638 203.52 115.523C203.507 115.408 203.536 115.292 203.602 115.196C203.669 115.101 203.768 115.033 203.88 115.006L206.517 114.372C206.639 114.344 206.767 114.366 206.873 114.431C206.979 114.497 207.055 114.602 207.084 114.724C207.113 114.845 207.094 114.973 207.029 115.08C206.965 115.187 206.861 115.264 206.74 115.295L204.102 115.929C204.065 115.938 204.028 115.942 203.99 115.942Z" fill="#0F1011"/>
<path d="M200.919 120.244C200.973 120.809 200.915 121.379 200.747 121.921C200.579 122.462 200.305 122.966 199.941 123.401C199.577 123.836 199.13 124.194 198.626 124.455C198.122 124.716 197.572 124.874 197.006 124.92C196.441 124.966 195.872 124.9 195.332 124.724C194.793 124.548 194.294 124.267 193.864 123.897C193.434 123.527 193.082 123.075 192.828 122.567C192.575 122.06 192.424 121.507 192.386 120.941C192.331 120.379 192.388 119.811 192.557 119.272C192.725 118.732 193 118.232 193.365 117.801C193.731 117.371 194.179 117.018 194.684 116.764C195.189 116.51 195.739 116.36 196.303 116.323C199.352 116.227 200.724 117.887 200.919 120.244Z" fill="#E98862"/>
<g opacity="0.15">
<path d="M210.653 123.374C210.569 123.374 210.489 123.344 210.425 123.29C210.362 123.235 210.32 123.16 210.308 123.077C210.296 122.995 210.313 122.911 210.358 122.84C210.402 122.769 210.471 122.717 210.55 122.692L212.604 122.062L211.167 118.863C211.129 118.778 211.126 118.682 211.159 118.596C211.192 118.509 211.258 118.439 211.342 118.402C211.427 118.364 211.523 118.361 211.609 118.394C211.696 118.427 211.766 118.492 211.803 118.577L213.401 122.136C213.422 122.181 213.432 122.23 213.432 122.28C213.432 122.329 213.422 122.378 213.401 122.423C213.381 122.468 213.351 122.508 213.314 122.541C213.277 122.573 213.233 122.598 213.186 122.612L210.755 123.359C210.722 123.369 210.688 123.374 210.653 123.374Z" fill="black"/>
</g>
<path d="M206.637 125.726C206.637 125.726 210.365 126.119 212.979 125.206C212.979 125.206 212.958 127.661 210.009 127.904C207.06 128.146 206.637 125.726 206.637 125.726Z" fill="white"/>
</svg>
